<svg width="512" height="512" viewBox="0 0 512 512" fill="none" xmlns="http://www.w3.org/2000/svg">
<g clip-path="url(#clip0_12_19)">
<path d="M512.563 415C512.595 414.01 512.595 414.01 512.629 413C511.62 409.793 509.796 408.789 507 407C504.146 406.657 501.696 406.53 498.855 406.609C498.086 406.615 497.316 406.621 496.523 406.627C494.077 406.649 491.633 406.699 489.188 406.75C487.524 406.77 485.861 406.788 484.197 406.805C480.131 406.849 476.066 406.918 472 407C472.004 405.89 472.007 404.781 472.011 403.638C472.1 376.665 472.166 349.692 472.207 322.719C472.228 309.675 472.256 296.631 472.302 283.587C472.342 272.22 472.367 260.854 472.376 249.487C472.382 243.467 472.394 237.446 472.423 231.425C472.45 225.762 472.458 220.099 472.452 214.435C472.454 212.353 472.462 210.272 472.477 208.19C472.497 205.353 472.492 202.518 472.481 199.681C472.493 198.852 472.504 198.024 472.516 197.17C472.479 193.558 472.306 191.422 470.157 188.457C468 187 468 187 465 187C465 180.4 465 173.8 465 167C466.65 166.34 468.3 165.68 470 165C472.621 161.069 472.818 159.682 472 155C470.392 152.862 470.392 152.862 468.219 150.526C466.988 149.203 466.988 149.203 465.733 147.853C460.82 142.725 455.836 137.672 450.816 132.648C449.668 131.497 448.52 130.345 447.372 129.194C444.988 126.804 442.602 124.416 440.214 122.029C437.15 118.965 434.093 115.894 431.038 112.822C428.68 110.452 426.317 108.088 423.953 105.724C422.822 104.593 421.694 103.459 420.567 102.325C419.002 100.75 417.431 99.1815 415.858 97.6148C414.965 96.7211 414.073 95.8275 413.154 94.9068C411 93 411 93 409 93C409 92.34 409 91.68 409 91C405.536 88.6907 404.248 88.751 400.165 88.7539C398.94 88.7499 397.714 88.746 396.452 88.7419C395.085 88.7476 393.719 88.7534 392.352 88.7595C390.906 88.7586 389.459 88.7569 388.013 88.7543C384.029 88.7498 380.046 88.7579 376.062 88.7679C371.769 88.7765 367.477 88.7736 363.185 88.7721C355.744 88.771 348.304 88.7773 340.864 88.7886C330.107 88.8048 319.35 88.81 308.593 88.8125C291.141 88.8169 273.689 88.8302 256.238 88.8491C239.282 88.8675 222.327 88.8816 205.371 88.8902C204.327 88.8907 203.282 88.8912 202.206 88.8917C196.965 88.8943 191.724 88.8969 186.484 88.8994C142.989 88.9201 99.4946 88.9553 56 89C56.021 87.966 56.0419 86.9319 56.0635 85.8665C56.1361 82.0181 56.1819 78.1699 56.2197 74.3211C56.2398 72.6575 56.2671 70.9941 56.3018 69.3308C56.3505 66.9352 56.373 64.5406 56.3906 62.1446C56.4216 61.0349 56.4216 61.0349 56.4532 59.9028C56.4548 56.205 56.1126 54.1761 54.1006 51.0303C52 49 52 49 50 48.3711C49.01 48.404 49.01 48.404 48 48.4375C47.01 48.4356 47.01 48.4356 46 48.4336C42.9948 49.2847 41.9011 50.5166 40 53C39.6509 55.8897 39.5318 58.3859 39.6094 61.2656C39.615 62.059 39.6207 62.8524 39.6265 63.6699C39.6489 66.1972 39.6991 68.7231 39.75 71.25C39.7701 72.9661 39.7883 74.6823 39.8047 76.3985C39.8487 80.5995 39.9177 84.7995 40 89C38.3956 88.9686 38.3956 88.9686 36.7588 88.9365C32.7856 88.8641 28.8125 88.8182 24.8389 88.7803C23.12 88.7602 21.4012 88.7329 19.6826 88.6983C17.2101 88.6497 14.7385 88.627 12.2656 88.6094C11.4988 88.5888 10.732 88.5681 9.94196 88.5468C6.3633 88.5453 4.40241 88.692 1.5188 90.8994C-0.114506 93.1584 -0.56788 94.2425 -0.562494 97C-0.584408 97.66 -0.606322 98.32 -0.6289 99C0.379596 102.207 2.20362 103.211 5.00001 105C7.85451 105.343 10.3041 105.47 13.1445 105.391C13.9143 105.385 14.6841 105.379 15.4772 105.373C17.923 105.351 20.3672 105.301 22.8125 105.25C24.4759 105.23 26.1393 105.212 27.8027 105.195C31.8691 105.151 35.9343 105.082 40 105C39.9985 105.591 39.997 106.182 39.9954 106.791C39.9059 141.796 39.8373 176.801 39.7958 211.807C39.7908 216.008 39.7856 220.208 39.7803 224.409C39.7792 225.246 39.7782 226.082 39.7771 226.944C39.7597 240.495 39.7281 254.046 39.6914 267.597C39.654 281.496 39.6318 295.395 39.6237 309.294C39.6182 317.875 39.6008 326.455 39.5683 335.035C39.5472 340.915 39.5408 346.794 39.546 352.674C39.5486 356.069 39.5446 359.463 39.5232 362.858C39.5034 366.535 39.508 370.212 39.519 373.889C39.5073 374.967 39.4957 376.045 39.4837 377.155C39.5418 384.33 39.5418 384.33 41.8426 387.694C44 389 44 389 47 389C47 394.94 47 400.88 47 407C45.7539 406.979 44.5078 406.958 43.2239 406.937C38.5928 406.864 33.9618 406.818 29.3303 406.78C27.3273 406.76 25.3244 406.733 23.3216 406.698C20.4395 406.65 17.5582 406.627 14.6758 406.609C13.7829 406.589 12.89 406.568 11.9701 406.547C7.77106 406.545 5.58 406.641 1.93459 408.899C-0.150419 411.163 -0.662903 411.976 -0.56248 415C-0.563769 415.66 -0.565058 416.32 -0.566386 417C0.284711 420.005 1.51656 421.099 4.00002 423C6.88967 423.349 9.38595 423.468 12.2656 423.391C13.059 423.385 13.8524 423.379 14.6699 423.373C17.1972 423.351 19.7231 423.301 22.25 423.25C23.9661 423.23 25.6823 423.212 27.3985 423.195C31.5995 423.151 35.7995 423.082 40 423C39.9791 424.07 39.9581 425.139 39.9365 426.241C39.8641 430.214 39.8182 434.188 39.7803 438.161C39.7602 439.88 39.7329 441.599 39.6983 443.317C39.6497 445.79 39.627 448.262 39.6094 450.734C39.5784 451.885 39.5784 451.885 39.5468 453.058C39.5453 456.637 39.692 458.598 41.8994 461.481C44.1584 463.115 45.2425 463.568 48 463.563C48.66 463.584 49.32 463.606 50 463.629C52 463 52 463 56 458C56 446.45 56 434.9 56 423C188 423 320 423 456 423C456 434.55 456 446.1 456 458C460 463 460 463 462 463.629C462.66 463.607 463.32 463.585 464 463.563C464.66 463.564 465.32 463.565 466 463.566C469.005 462.715 470.099 461.483 472 459C472.349 456.11 472.468 453.614 472.391 450.734C472.385 449.941 472.379 449.148 472.373 448.33C472.351 445.803 472.301 443.277 472.25 440.75C472.23 439.034 472.212 437.318 472.195 435.602C472.151 431.4 472.082 427.2 472 423C473.07 423.021 474.139 423.042 475.241 423.063C479.214 423.136 483.188 423.182 487.161 423.22C488.88 423.24 490.599 423.267 492.317 423.302C494.79 423.35 497.262 423.373 499.734 423.391C500.501 423.411 501.268 423.432 502.058 423.453C505.637 423.455 507.598 423.308 510.481 421.101C512.115 418.842 512.568 417.758 512.563 415Z" fill="#FBF2E2"/>
<path d="M472.875 158.812C470.59 148.855 458.034 139.871 450.816 132.648C449.668 131.497 448.52 130.345 447.372 129.194C444.988 126.804 442.602 124.416 440.214 122.029C437.15 118.965 434.093 115.894 431.038 112.822C428.68 110.452 426.317 108.088 423.953 105.724C422.822 104.593 421.694 103.459 420.567 102.325C419.002 100.75 417.431 99.1815 415.858 97.6147C414.965 96.7211 414.073 95.8275 413.154 94.9068C411 93 411 93 409 93C409 92.34 409 91.68 409 91C405.536 88.6907 404.248 88.751 400.165 88.7539C398.94 88.7499 397.714 88.746 396.452 88.7419C395.085 88.7476 393.719 88.7534 392.352 88.7595C390.906 88.7586 389.459 88.7569 388.013 88.7543C384.029 88.7498 380.046 88.7579 376.062 88.7679C371.769 88.7765 367.477 88.7736 363.185 88.7721C355.744 88.771 348.304 88.7773 340.864 88.7885C330.107 88.8048 319.35 88.81 308.593 88.8125C291.141 88.8169 273.689 88.8302 256.238 88.8491C239.282 88.8675 222.327 88.8816 205.371 88.8901C204.327 88.8907 203.282 88.8912 202.206 88.8917C196.965 88.8943 191.724 88.8969 186.484 88.8994C142.989 88.9201 99.4946 88.9553 56 89C56.021 87.9659 56.0419 86.9319 56.0635 85.8665C56.1361 82.0181 56.1819 78.1699 56.2197 74.3211C56.2398 72.6575 56.2671 70.9941 56.3018 69.3308C56.3505 66.9352 56.373 64.5406 56.3906 62.1445C56.4216 61.0349 56.4216 61.0349 56.4532 59.9028C56.4548 56.205 56.1126 54.1761 54.1006 51.0303C52 49 52 49 50 48.3711C49.01 48.404 49.01 48.404 48 48.4375C47.01 48.4356 47.01 48.4356 46 48.4336C42.9948 49.2847 41.9012 50.5166 40 53C39.6509 55.8897 39.5319 58.3859 39.6094 61.2656C39.615 62.059 39.6207 62.8524 39.6265 63.6699C39.6489 66.1972 39.6991 68.7231 39.75 71.25C39.7701 72.9661 39.7883 74.6823 39.8047 76.3985C39.8487 80.5995 39.9177 84.7995 40 89C38.3956 88.9686 38.3956 88.9686 36.7588 88.9365C32.7856 88.8641 28.8125 88.8182 24.8389 88.7803C23.12 88.7602 21.4012 88.7329 19.6826 88.6983C17.2101 88.6497 14.7385 88.627 12.2656 88.6094C11.4988 88.5888 10.732 88.5681 9.94196 88.5468C6.3633 88.5453 4.40241 88.692 1.51881 90.8994C-0.114502 93.1584 -0.567876 94.2425 -0.56249 97C-0.584404 97.66 -0.606318 98.32 -0.628897 99C0.3796 102.207 2.20362 103.211 5.00001 105C7.85451 105.343 10.3041 105.47 13.1445 105.391C13.9143 105.385 14.6841 105.379 15.4772 105.373C17.923 105.351 20.3672 105.301 22.8125 105.25C24.4759 105.23 26.1393 105.212 27.8027 105.195C31.8691 105.151 35.9343 105.082 40 105C39.9985 105.591 39.997 106.182 39.9954 106.791C39.9059 141.796 39.8373 176.801 39.7958 211.807C39.7908 216.008 39.7856 220.208 39.7803 224.409C39.7792 225.246 39.7782 226.082 39.7771 226.944C39.7597 240.495 39.7281 254.046 39.6914 267.597C39.654 281.496 39.6318 295.395 39.6237 309.294C39.6182 317.875 39.6008 326.455 39.5683 335.035C39.5472 340.915 39.5408 346.794 39.546 352.674C39.5486 356.069 39.5446 359.463 39.5232 362.858C39.5034 366.535 39.508 370.212 39.519 373.889C39.5074 374.967 39.4957 376.045 39.4837 377.155C39.542 384.356 39.542 384.356 41.9029 387.677C44.3076 389.194 45.2876 389.403 48.0625 388.938C48.7341 388.843 49.4057 388.749 50.0977 388.652C52.4747 387.837 53.4315 386.962 55 385C55.3726 382.826 55.3726 382.826 55.3692 380.242C55.3751 379.257 55.3811 378.272 55.3873 377.257C55.3785 376.173 55.3698 375.089 55.3608 373.971C55.3634 372.824 55.3659 371.677 55.3686 370.495C55.3727 367.299 55.3632 364.103 55.3482 360.908C55.3352 357.413 55.3395 353.918 55.3417 350.423C55.3433 343.635 55.3294 336.846 55.3102 330.058C55.2886 322.208 55.2862 314.358 55.2838 306.508C55.2681 285.776 55.2262 265.044 55.1875 244.313C55.0947 174.858 55.0947 174.858 55 104C167.2 104 279.4 104 395 104C395 119.51 395 135.02 395 151C399.519 160.037 399.519 160.037 403 162.438C403.66 162.911 404.32 163.384 405 163.871C408.714 165.967 412.304 166.152 416.515 166.285C417.62 166.321 418.725 166.357 419.863 166.394C424.893 166.531 429.923 166.663 434.953 166.777C437.608 166.842 440.262 166.918 442.917 167.005C446.745 167.129 450.573 167.221 454.402 167.305C456.182 167.372 456.182 167.372 457.998 167.44C466.21 167.567 466.21 167.567 470.233 164.68C472 162 472 162 472.875 158.812Z" fill="black"/>
<path d="M512.563 415C512.595 414.01 512.595 414.01 512.629 413C511.62 409.793 509.796 408.789 507 407C504.146 406.657 501.696 406.53 498.855 406.609C498.086 406.615 497.316 406.621 496.523 406.627C494.077 406.649 491.633 406.699 489.188 406.75C487.524 406.77 485.861 406.788 484.197 406.805C480.131 406.849 476.066 406.918 472 407C472.004 405.89 472.007 404.781 472.011 403.638C472.1 376.665 472.166 349.692 472.207 322.719C472.228 309.675 472.256 296.631 472.302 283.587C472.342 272.22 472.367 260.854 472.376 249.487C472.382 243.467 472.394 237.446 472.423 231.425C472.45 225.762 472.458 220.099 472.452 214.435C472.454 212.353 472.462 210.272 472.477 208.19C472.497 205.353 472.492 202.518 472.481 199.681C472.493 198.852 472.504 198.024 472.516 197.17C472.479 193.565 472.322 191.437 470.154 188.493C468 187 468 187 465.063 186.438C460.861 187.209 459.612 188.644 457 192C456.289 194.939 456.346 197.789 456.399 200.801C456.394 201.688 456.39 202.574 456.386 203.487C456.378 206.457 456.405 209.426 456.432 212.396C456.434 214.525 456.433 216.653 456.43 218.782C456.429 224.563 456.458 230.343 456.493 236.124C456.524 242.164 456.527 248.205 456.533 254.245C456.549 265.684 456.59 277.124 456.64 288.563C456.696 301.586 456.723 314.608 456.748 327.631C456.801 354.421 456.889 381.21 457 408C456.151 407.998 455.302 407.996 454.427 407.994C403.912 407.868 353.398 407.742 302.883 407.618C296.795 407.603 290.707 407.588 284.618 407.573C283.407 407.57 282.195 407.567 280.946 407.564C261.417 407.515 241.888 407.467 222.359 407.418C202.266 407.368 182.173 407.318 162.08 407.269C149.718 407.239 137.356 407.208 124.994 407.177C116.475 407.156 107.956 407.135 99.4371 407.114C94.5489 407.102 89.6606 407.09 84.7724 407.077C83.8643 407.075 82.9563 407.073 82.0207 407.07C80.2178 407.066 78.4149 407.061 76.6119 407.056C72.2685 407.045 67.9251 407.037 63.5817 407.035C55.3983 407.03 47.2172 406.999 39.0344 406.892C35.0405 406.842 31.0466 406.807 27.0526 406.774C25.1425 406.754 23.2326 406.728 21.3227 406.693C18.6827 406.646 16.0434 406.623 13.403 406.606C12.6231 406.586 11.8432 406.565 11.0396 406.544C7.29612 406.544 5.20475 406.87 2.01415 408.9C2.89012e-05 411 2.00797e-05 411 -0.628886 413C-0.606972 413.66 -0.585058 414.32 -0.56248 415C-0.563769 415.66 -0.565058 416.32 -0.566386 417C0.284711 420.005 1.51656 421.099 4.00002 423C6.88967 423.349 9.38595 423.468 12.2656 423.391C13.059 423.385 13.8524 423.379 14.6699 423.373C17.1972 423.351 19.7231 423.301 22.25 423.25C23.9661 423.23 25.6823 423.212 27.3985 423.195C31.5995 423.151 35.7995 423.082 40 423C39.9791 424.07 39.9581 425.139 39.9365 426.241C39.8641 430.214 39.8182 434.188 39.7803 438.161C39.7602 439.88 39.7329 441.599 39.6983 443.317C39.6497 445.79 39.627 448.262 39.6094 450.734C39.5784 451.885 39.5784 451.885 39.5468 453.058C39.5453 456.637 39.692 458.598 41.8994 461.481C44.1584 463.115 45.2425 463.568 48 463.563C48.66 463.584 49.32 463.606 50 463.629C52 463 52 463 56 458C56 446.45 56 434.9 56 423C188 423 320 423 456 423C456 434.55 456 446.1 456 458C460 463 460 463 462 463.629C462.66 463.607 463.32 463.585 464 463.563C464.66 463.564 465.32 463.565 466 463.566C469.005 462.715 470.099 461.483 472 459C472.349 456.11 472.468 453.614 472.391 450.734C472.385 449.941 472.379 449.148 472.373 448.33C472.351 445.803 472.301 443.277 472.25 440.75C472.23 439.034 472.212 437.318 472.195 435.602C472.151 431.4 472.082 427.2 472 423C473.07 423.021 474.139 423.042 475.241 423.063C479.214 423.136 483.188 423.182 487.161 423.22C488.88 423.24 490.599 423.267 492.317 423.302C494.79 423.35 497.262 423.373 499.734 423.391C500.501 423.411 501.268 423.432 502.058 423.453C505.637 423.455 507.598 423.308 510.481 421.101C512.115 418.842 512.568 417.758 512.563 415Z" fill="black"/>
<path d="M395 147C395 132.81 395 118.62 395 104C282.8 104 170.6 104 55 104C55 196.07 55 288.14 55 383C55.33 383 55.66 383 56 383C56 297.2 56 211.4 56 123C167.54 123 279.08 123 394 123C394 130.92 394 138.84 394 147C394.33 147 394.66 147 395 147Z" fill="#F5E0C1"/>
<path d="M512.563 96.9999C512.564 96.3399 512.565 95.6799 512.567 94.9999C511.715 91.9947 510.484 90.9011 508 88.9999C505.11 88.6508 502.614 88.5318 499.734 88.6093C498.941 88.615 498.148 88.6206 497.33 88.6265C494.803 88.6488 492.277 88.699 489.75 88.7499C488.034 88.77 486.318 88.7882 484.602 88.8046C480.401 88.8487 476.201 88.9177 472 88.9999C472.021 87.9303 472.042 86.8607 472.064 85.7587C472.136 81.7855 472.182 77.8124 472.22 73.8388C472.24 72.1199 472.267 70.4012 472.302 68.6825C472.35 66.21 472.373 63.7384 472.391 61.2656C472.422 60.1153 472.422 60.1153 472.453 58.9419C472.455 55.3632 472.308 53.4023 470.101 50.5187C467.842 48.8854 466.758 48.432 464 48.4374C463.34 48.4155 462.68 48.3936 462 48.371C458.72 49.4024 457.792 51.09 456 53.9999C455.419 57.3867 455.463 60.7268 455.504 64.1562C455.502 65.626 455.502 65.626 455.5 67.1255C455.501 69.1932 455.513 71.2609 455.534 73.3285C455.563 76.4891 455.554 79.6479 455.541 82.8085C455.547 84.8202 455.556 86.832 455.567 88.8437C455.562 90.2579 455.562 90.2579 455.558 91.7007C455.628 96.5816 455.748 100.077 459 104C461.339 105.17 462.763 105.145 465.37 105.177C466.275 105.19 467.18 105.203 468.112 105.216C469.092 105.223 470.072 105.231 471.082 105.238C472.088 105.246 473.095 105.254 474.132 105.263C476.264 105.277 478.397 105.287 480.53 105.295C483.789 105.312 487.048 105.356 490.307 105.4C492.378 105.41 494.449 105.419 496.52 105.426C497.494 105.443 498.468 105.461 499.471 105.479C503.848 105.465 506.313 105.419 510.116 103.098C512.148 100.835 512.662 99.9933 512.563 96.9999Z" fill="black"/>
<path d="M445 151C440.977 146.178 436.772 141.624 432.324 137.191C431.714 136.58 431.103 135.968 430.474 135.338C429.197 134.061 427.919 132.784 426.639 131.509C424.672 129.547 422.71 127.579 420.748 125.611C419.503 124.367 418.258 123.123 417.012 121.879C416.423 121.288 415.835 120.698 415.228 120.09C411.115 116 411.115 116 410 116C409.926 120.502 409.871 125.004 409.835 129.507C409.82 131.039 409.8 132.57 409.774 134.102C409.737 136.304 409.72 138.505 409.707 140.707C409.692 141.392 409.676 142.076 409.66 142.781C409.659 145.477 409.753 147.549 411.063 149.938C414.04 151.57 416.989 151.368 420.293 151.293C420.999 151.289 421.705 151.285 422.432 151.28C424.685 151.263 426.936 151.226 429.188 151.188C430.716 151.172 432.244 151.159 433.772 151.147C437.515 151.113 441.257 151.062 445 151Z" fill="#DC5790"/>
<path d="M465 166C447.84 166 430.68 166 413 166C413 166.33 413 166.66 413 167C413.946 166.947 414.892 166.893 415.867 166.838C435.29 165.152 435.29 165.152 452.785 171.629C456.272 174.94 459.266 178.564 461.957 182.547C462.301 183.027 462.645 183.506 463 184C463.33 184 463.66 184 464 184C464.167 181.188 464.334 178.375 464.5 175.563C464.548 174.76 464.595 173.958 464.645 173.131C465 167.113 465 167.113 465 166Z" fill="#EBD9BC"/>
<path d="M430 151C425.994 146.078 421.664 141.554 417.188 137.063C416.6 136.471 416.013 135.879 415.407 135.269C411.124 131 411.124 131 410 131C409.919 133.771 409.86 136.541 409.813 139.313C409.787 140.098 409.762 140.884 409.736 141.693C409.727 142.451 409.717 143.208 409.707 143.988C409.691 144.685 409.676 145.381 409.659 146.099C410.114 148.636 410.936 149.49 413 151C414.901 151.341 414.901 151.341 417.012 151.293C417.769 151.283 418.526 151.274 419.307 151.264C420.092 151.239 420.878 151.213 421.688 151.188C422.485 151.174 423.282 151.161 424.104 151.147C426.069 151.111 428.035 151.057 430 151Z" fill="#DE74A4"/>
<path d="M133.877 281C137.158 281.929 139.004 283.922 140.975 286.594C142.797 290.307 144.186 294.156 145.592 298.043C146.012 299.17 146.432 300.296 146.865 301.457C148.206 305.06 149.529 308.67 150.85 312.281C152.164 315.834 153.483 319.385 154.801 322.936C155.658 325.247 156.511 327.559 157.361 329.872C159.239 334.973 161.139 340.06 163.167 345.104C163.498 345.929 163.828 346.753 164.169 347.603C164.77 349.091 165.38 350.576 166.001 352.057C167.615 356.047 168.478 359.289 167.975 363.594C165.685 366.604 164.183 368.292 160.475 369.219C156.865 368.316 154.964 366.629 152.975 363.594C148.975 354.581 148.975 354.581 148.975 350.594C137.755 350.594 126.535 350.594 114.975 350.594C113.985 353.894 112.995 357.194 111.975 360.594C109.575 366.194 109.575 366.194 105.975 368.594C102.364 368.465 99.9035 368.29 96.9748 366.094C94.1599 359.057 98.0775 350.845 100.694 344.242C101.07 343.266 101.447 342.29 101.835 341.285C103.038 338.175 104.256 335.072 105.475 331.969C106.262 329.94 107.049 327.912 107.834 325.883C109.404 321.831 110.986 317.785 112.576 313.741C114.232 309.523 115.846 305.291 117.436 301.048C118.036 299.465 118.036 299.465 118.648 297.85C119.41 295.835 120.164 293.817 120.906 291.796C121.423 290.442 121.423 290.442 121.949 289.061C122.245 288.268 122.541 287.476 122.845 286.659C125.427 281.938 128.691 281.247 133.877 281Z" fill="#040303"/>
<path d="M217.893 281.133C221.078 281.838 222.795 283.215 224.975 285.594C226.716 288.507 227.222 290.616 227.202 293.995C227.202 294.856 227.202 295.716 227.201 296.603C227.191 297.523 227.181 298.443 227.17 299.391C227.167 300.339 227.165 301.288 227.162 302.266C227.15 305.292 227.125 308.318 227.1 311.344C227.09 313.397 227.081 315.45 227.073 317.504C227.051 322.534 227.016 327.564 226.975 332.594C227.926 332.736 228.878 332.877 229.858 333.023C232.975 333.594 232.975 333.594 234.85 334.719C236.698 337.799 236.465 340.098 235.975 343.594C233.725 346.031 233.725 346.031 230.975 347.594C229.655 347.594 228.335 347.594 226.975 347.594C227.021 348.691 227.068 349.788 227.116 350.918C227.153 352.372 227.189 353.827 227.225 355.281C227.258 356.002 227.292 356.724 227.326 357.467C227.397 361.317 227.218 363.19 225.178 366.574C222.975 368.594 222.975 368.594 219.475 369.219C215.975 368.594 215.975 368.594 213.772 366.574C211.4 362.64 211.516 359.769 211.725 355.281C211.743 354.541 211.761 353.8 211.78 353.037C211.826 351.222 211.898 349.408 211.975 347.594C211.062 347.615 210.149 347.636 209.209 347.657C205.807 347.726 202.407 347.776 199.005 347.813C197.535 347.834 196.066 347.861 194.597 347.895C192.479 347.944 190.363 347.967 188.244 347.984C186.972 348.005 185.699 348.026 184.388 348.048C180.293 347.503 178.647 346.746 175.975 343.594C175.167 338.227 176.429 334.913 179.053 330.269C179.537 329.399 179.537 329.399 180.031 328.512C181.081 326.634 182.152 324.77 183.225 322.906C183.959 321.61 184.692 320.314 185.424 319.017C187.249 315.796 189.094 312.586 190.946 309.38C191.903 307.719 192.851 306.052 193.798 304.385C195.361 301.632 196.944 298.892 198.537 296.156C198.988 295.366 199.439 294.575 199.904 293.761C204.222 286.508 208.916 280.491 217.893 281.133Z" fill="#030202"/>
<path d="M130.975 307.594C131.635 307.594 132.295 307.594 132.975 307.594C134.401 311.42 135.825 315.247 137.247 319.074C137.732 320.377 138.217 321.68 138.702 322.983C139.399 324.851 140.093 326.72 140.787 328.59C141.206 329.716 141.625 330.842 142.057 332.002C142.975 334.594 142.975 334.594 142.975 335.594C135.715 335.594 128.455 335.594 120.975 335.594C124.35 325.469 124.35 325.469 125.799 321.559C126.105 320.73 126.411 319.902 126.727 319.049C127.19 317.803 127.19 317.803 127.662 316.531C127.983 315.666 128.303 314.8 128.633 313.908C129.412 311.803 130.193 309.698 130.975 307.594Z" fill="#F2EADA"/>
<path d="M210.975 305.594C211.305 305.594 211.635 305.594 211.975 305.594C211.975 314.504 211.975 323.414 211.975 332.594C206.695 332.594 201.415 332.594 195.975 332.594C198.304 326.77 201.34 321.661 204.537 316.281C205.14 315.255 205.743 314.228 206.364 313.17C206.938 312.2 207.512 311.23 208.104 310.23C208.63 309.341 209.157 308.451 209.7 307.534C210.121 306.894 210.541 306.253 210.975 305.594Z" fill="#F3EBDB"/>
</g>
<defs>
<clipPath id="clip0_12_19">
<rect width="512" height="512" fill="white" transform="matrix(-4.37114e-08 -1 -1 4.37114e-08 512 512)"/>
</clipPath>
</defs>
</svg>
