<svg width="781" height="757" viewBox="0 0 781 757" fill="none" xmlns="http://www.w3.org/2000/svg">
<rect width="780.999" height="756.726" rx="220" fill="white"/>
<path d="M316.57 431.502C317.174 434.791 319.127 437.167 320.758 438.355C321.159 440.458 321.719 444.784 320.758 445.265C319.797 445.746 309.555 443.262 304.553 441.96C299.852 437.153 290.328 427.298 289.848 426.337C289.368 425.375 286.847 414.319 285.647 408.911C284.446 403.703 281.925 392.927 281.445 391.484C280.845 389.682 296.15 371.054 297.05 370.153C297.771 369.432 321.359 363.242 333.063 360.238L360.072 364.444L371.176 368.65C393.264 379.467 414.791 399.997 422.794 408.911L485.216 463.292C539.715 529.391 600.756 531.894 624.464 524.884C613.96 625.534 508.024 618.924 457.906 577.162C417.812 543.752 408.989 509.761 409.589 496.942C401.287 491.133 384.021 474.168 381.38 452.776C378.739 431.384 362.073 418.825 354.07 415.22C345.868 412.597 338.828 412.486 333.277 413.468C324.249 415.064 314.916 422.485 316.57 431.502Z" fill="url(#paint0_linear_80_1968)"/>
<path d="M344.647 151C449.387 151 534.296 235.909 534.296 340.649C534.296 445.39 449.387 530.298 344.647 530.298C239.908 530.298 155 445.389 155 340.649C155 235.909 239.908 151 344.647 151ZM344.651 238.16C288.049 238.16 242.164 284.046 242.164 340.648C242.164 397.251 288.049 443.137 344.651 443.137C401.254 443.137 447.14 397.251 447.14 340.648C447.14 284.046 401.254 238.16 344.651 238.16Z" fill="url(#paint1_radial_80_1968)"/>
<path fill-rule="evenodd" clip-rule="evenodd" d="M344.737 151C449.477 151 534.385 235.909 534.386 340.649C534.385 445.389 449.477 530.298 344.737 530.298C343.422 530.298 342.109 530.284 340.8 530.257L340.748 530.298C340.445 530.28 340.139 530.257 339.83 530.234C277.701 528.656 223.001 497.197 189.559 449.693C208.349 469.268 232.409 483.744 259.458 490.842C248.171 477.995 239.249 461.385 235.255 440.133C232.249 417.09 243.97 366.881 294.463 357.18C312.195 353.773 337.201 351.048 373.508 369.803C357.141 363.086 321.568 356.888 303.483 382.133C301.291 385.194 299.808 388.714 298.992 392.39C293.958 415.069 300.397 447.991 361.186 441.335C408.672 433.22 440.23 399.558 447.143 347.262L447.213 347.627C447.218 347.105 447.223 346.582 447.223 346.059C447.223 345.144 447.212 344.23 447.195 343.319C447.218 342.432 447.229 341.541 447.229 340.648C447.229 331.787 446.104 323.188 443.989 314.986C429.685 247.235 369.556 196.383 297.548 196.383C242.819 196.383 194.952 225.759 168.85 269.602C196.966 200.063 265.121 151 344.737 151Z" fill="url(#paint2_linear_80_1968)"/>
<defs>
<linearGradient id="paint0_linear_80_1968" x1="310.555" y1="393.888" x2="607.575" y2="596.373" gradientUnits="userSpaceOnUse">
<stop stop-color="#3D7C63"/>
<stop offset="1" stop-color="#2A806A"/>
</linearGradient>
<radialGradient id="paint1_radial_80_1968" cx="0" cy="0" r="1" gradientTransform="matrix(-40.5744 205.578 -205.577 -40.5746 316.997 310.594)" gradientUnits="userSpaceOnUse">
<stop stop-color="#4E936D"/>
<stop offset="1" stop-color="#285F56"/>
</radialGradient>
<linearGradient id="paint2_linear_80_1968" x1="244.671" y1="187.688" x2="422.818" y2="510.456" gradientUnits="userSpaceOnUse">
<stop stop-color="#4E936E"/>
<stop offset="0.514423" stop-color="#4CB791"/>
<stop offset="1" stop-color="#509286"/>
</linearGradient>
</defs>
</svg>
