<svg width="512" height="512" viewBox="0 0 512 512" fill="none" xmlns="http://www.w3.org/2000/svg">
<g clip-path="url(#clip0_12_6)">
<path d="M97 -0.5625C97.99 -0.595371 97.99 -0.595371 99 -0.628906C102.207 0.37959 103.211 2.20361 105 5C105.343 7.8545 105.47 10.3041 105.391 13.1445C105.385 13.9143 105.379 14.6841 105.373 15.4772C105.351 17.923 105.301 20.3672 105.25 22.8125C105.23 24.4759 105.212 26.1393 105.195 27.8027C105.151 31.8691 105.082 35.9343 105 40C106.11 39.9963 107.219 39.9926 108.362 39.9888C135.335 39.9001 162.308 39.8343 189.281 39.7928C202.325 39.7721 215.369 39.744 228.413 39.6982C239.78 39.6584 251.146 39.6326 262.513 39.6236C268.533 39.6184 274.554 39.6061 280.575 39.5771C286.238 39.55 291.901 39.5415 297.565 39.5476C299.647 39.5465 301.728 39.5385 303.81 39.5232C306.647 39.5034 309.482 39.508 312.319 39.519C313.148 39.5073 313.976 39.4957 314.83 39.4837C318.442 39.5215 320.578 39.694 323.543 41.8426C325 44 325 44 325 47C331.6 47 338.2 47 345 47C345.66 45.35 346.32 43.7 347 42C350.931 39.3791 352.318 39.1825 357 40C359.138 41.6076 359.138 41.6076 361.474 43.7815C362.797 45.0118 362.797 45.0118 364.147 46.2669C369.275 51.18 374.328 56.1637 379.352 61.1836C380.503 62.3319 381.655 63.4801 382.806 64.6282C385.196 67.0123 387.584 69.3985 389.971 71.7859C393.035 74.8499 396.106 77.9068 399.178 80.9622C401.548 83.3204 403.912 85.6832 406.276 88.0472C407.407 89.1776 408.541 90.3063 409.675 91.4334C411.25 92.9984 412.818 94.5695 414.385 96.1423C415.279 97.0345 416.172 97.9267 417.093 98.8459C419 101 419 101 419 103C419.66 103 420.32 103 421 103C423.309 106.464 423.249 107.752 423.246 111.835C423.25 113.06 423.254 114.286 423.258 115.548C423.252 116.915 423.247 118.281 423.241 119.648C423.241 121.094 423.243 122.541 423.246 123.987C423.25 127.971 423.242 131.954 423.232 135.938C423.224 140.231 423.226 144.523 423.228 148.816C423.229 156.256 423.223 163.696 423.211 171.136C423.195 181.893 423.19 192.65 423.187 203.407C423.183 220.859 423.17 238.311 423.151 255.762C423.133 272.718 423.118 289.673 423.11 306.629C423.109 307.673 423.109 308.718 423.108 309.794C423.106 315.035 423.103 320.276 423.101 325.516C423.08 369.011 423.045 412.505 423 456C424.034 455.979 425.068 455.958 426.134 455.937C429.982 455.864 433.83 455.818 437.679 455.78C439.342 455.76 441.006 455.733 442.669 455.698C445.065 455.65 447.459 455.627 449.855 455.609C450.965 455.578 450.965 455.578 452.097 455.547C455.795 455.545 457.824 455.887 460.97 457.899C463 460 463 460 463.629 462C463.596 462.99 463.596 462.99 463.562 464C463.564 464.99 463.564 464.99 463.566 466C462.715 469.005 461.483 470.099 459 472C456.11 472.349 453.614 472.468 450.734 472.391C449.941 472.385 449.148 472.379 448.33 472.373C445.803 472.351 443.277 472.301 440.75 472.25C439.034 472.23 437.318 472.212 435.602 472.195C431.4 472.151 427.2 472.082 423 472C423.031 473.604 423.031 473.604 423.063 475.241C423.136 479.214 423.182 483.187 423.22 487.161C423.24 488.88 423.267 490.599 423.302 492.317C423.35 494.79 423.373 497.261 423.391 499.734C423.411 500.501 423.432 501.268 423.453 502.058C423.455 505.637 423.308 507.598 421.101 510.481C418.842 512.115 417.758 512.568 415 512.562C414.34 512.584 413.68 512.606 413 512.629C409.793 511.62 408.789 509.796 407 507C406.657 504.145 406.53 501.696 406.609 498.855C406.615 498.086 406.621 497.316 406.627 496.523C406.649 494.077 406.699 491.633 406.75 489.188C406.77 487.524 406.788 485.861 406.805 484.197C406.849 480.131 406.918 476.066 407 472C406.409 472.002 405.818 472.003 405.209 472.005C370.204 472.094 335.199 472.163 300.193 472.204C295.992 472.209 291.792 472.214 287.591 472.22C286.754 472.221 285.918 472.222 285.057 472.223C271.505 472.24 257.954 472.272 244.403 472.309C230.504 472.346 216.605 472.368 202.706 472.376C194.125 472.382 185.545 472.399 176.965 472.432C171.085 472.453 165.206 472.459 159.326 472.454C155.931 472.451 152.537 472.455 149.142 472.477C145.465 472.497 141.788 472.492 138.111 472.481C137.033 472.493 135.955 472.504 134.845 472.516C127.67 472.458 127.67 472.458 124.306 470.157C123 468 123 468 123 465C117.06 465 111.12 465 105 465C105.021 466.246 105.042 467.492 105.063 468.776C105.136 473.407 105.182 478.038 105.22 482.67C105.24 484.673 105.267 486.676 105.302 488.678C105.35 491.561 105.373 494.442 105.391 497.324C105.411 498.217 105.432 499.11 105.453 500.03C105.455 504.229 105.359 506.42 103.101 510.065C100.837 512.15 100.025 512.663 97 512.562C96.34 512.564 95.68 512.565 95 512.566C91.9947 511.715 90.9011 510.483 89 508C88.6509 505.11 88.5318 502.614 88.6094 499.734C88.615 498.941 88.6207 498.148 88.6265 497.33C88.6489 494.803 88.6991 492.277 88.75 489.75C88.7701 488.034 88.7883 486.318 88.8047 484.602C88.8487 480.4 88.9177 476.2 89 472C87.9304 472.021 86.8608 472.042 85.7588 472.063C81.7856 472.136 77.8125 472.182 73.8389 472.22C72.12 472.24 70.4012 472.267 68.6826 472.302C66.2101 472.35 63.7385 472.373 61.2656 472.391C60.1154 472.422 60.1154 472.422 58.942 472.453C55.3633 472.455 53.4024 472.308 50.5188 470.101C48.8855 467.842 48.4321 466.758 48.4375 464C48.4156 463.34 48.3937 462.68 48.3711 462C49 460 49 460 54 456C65.55 456 77.1 456 89 456C89 324 89 192 89 56C77.45 56 65.9 56 54 56C49 52 49 52 48.3711 50C48.393 49.34 48.4149 48.68 48.4375 48C48.4362 47.34 48.4349 46.68 48.4336 46C49.2847 42.9947 50.5165 41.9011 53 40C55.8897 39.6509 58.3859 39.5318 61.2656 39.6094C62.059 39.615 62.8524 39.6207 63.6699 39.6265C66.1972 39.6489 68.7231 39.6991 71.25 39.75C72.9661 39.7701 74.6823 39.7883 76.3984 39.8047C80.5995 39.8487 84.7995 39.9177 89 40C88.9791 38.9304 88.9581 37.8608 88.9365 36.7588C88.8641 32.7856 88.8182 28.8125 88.7803 24.8389C88.7602 23.12 88.7329 21.4012 88.6982 19.6826C88.6496 17.2101 88.627 14.7385 88.6094 12.2656C88.5887 11.4988 88.5681 10.732 88.5468 9.94196C88.5453 6.36329 88.692 4.4024 90.8994 1.5188C93.1584 -0.114512 94.2425 -0.567886 97 -0.5625Z" fill="#FBF2E2"/>
<path d="M353.187 39.125C363.145 41.4103 372.129 53.9659 379.351 61.1836C380.503 62.3319 381.654 63.4801 382.806 64.6282C385.196 67.0123 387.584 69.3985 389.971 71.7859C393.035 74.8499 396.106 77.9068 399.178 80.9622C401.547 83.3204 403.912 85.6832 406.276 88.0472C407.407 89.1776 408.541 90.3063 409.675 91.4334C411.25 92.9984 412.818 94.5695 414.385 96.1423C415.279 97.0345 416.172 97.9267 417.093 98.8459C419 101 419 101 419 103C419.66 103 420.32 103 421 103C423.309 106.464 423.249 107.752 423.246 111.835C423.25 113.06 423.254 114.286 423.258 115.548C423.252 116.915 423.246 118.281 423.24 119.648C423.241 121.094 423.243 122.541 423.246 123.987C423.25 127.971 423.242 131.954 423.232 135.938C423.223 140.231 423.226 144.523 423.228 148.816C423.229 156.256 423.223 163.696 423.211 171.136C423.195 181.893 423.19 192.65 423.187 203.407C423.183 220.859 423.17 238.311 423.151 255.762C423.132 272.718 423.118 289.673 423.11 306.629C423.109 307.673 423.109 308.718 423.108 309.794C423.106 315.035 423.103 320.276 423.101 325.516C423.08 369.011 423.045 412.505 423 456C424.034 455.979 425.068 455.958 426.133 455.937C429.982 455.864 433.83 455.818 437.679 455.78C439.342 455.76 441.006 455.733 442.669 455.698C445.065 455.65 447.459 455.627 449.855 455.609C450.965 455.578 450.965 455.578 452.097 455.547C455.795 455.545 457.824 455.887 460.97 457.899C463 460 463 460 463.629 462C463.596 462.99 463.596 462.99 463.562 464C463.564 464.99 463.564 464.99 463.566 466C462.715 469.005 461.483 470.099 459 472C456.11 472.349 453.614 472.468 450.734 472.391C449.941 472.385 449.147 472.379 448.33 472.373C445.803 472.351 443.277 472.301 440.75 472.25C439.034 472.23 437.318 472.212 435.601 472.195C431.4 472.151 427.2 472.082 423 472C423.031 473.604 423.031 473.604 423.063 475.241C423.136 479.214 423.182 483.187 423.22 487.161C423.24 488.88 423.267 490.599 423.302 492.317C423.35 494.79 423.373 497.261 423.391 499.734C423.411 500.501 423.432 501.268 423.453 502.058C423.455 505.637 423.308 507.598 421.1 510.481C418.842 512.115 417.757 512.568 415 512.562C414.34 512.584 413.68 512.606 413 512.629C409.793 511.62 408.788 509.796 407 507C406.657 504.145 406.53 501.696 406.609 498.855C406.615 498.086 406.621 497.316 406.626 496.523C406.649 494.077 406.699 491.633 406.75 489.188C406.77 487.524 406.788 485.861 406.805 484.197C406.849 480.131 406.918 476.066 407 472C406.409 472.002 405.818 472.003 405.209 472.005C370.204 472.094 335.199 472.163 300.193 472.204C295.992 472.209 291.792 472.214 287.591 472.22C286.754 472.221 285.918 472.222 285.056 472.223C271.505 472.24 257.954 472.272 244.403 472.309C230.504 472.346 216.605 472.368 202.705 472.376C194.125 472.382 185.545 472.399 176.965 472.432C171.085 472.453 165.206 472.459 159.326 472.454C155.931 472.451 152.537 472.455 149.142 472.477C145.465 472.497 141.788 472.492 138.111 472.481C137.033 472.493 135.955 472.504 134.845 472.516C127.644 472.458 127.644 472.458 124.323 470.097C122.806 467.692 122.597 466.712 123.062 463.938C123.156 463.266 123.251 462.594 123.348 461.902C124.163 459.525 125.038 458.569 127 457C129.174 456.627 129.174 456.627 131.758 456.631C132.743 456.625 133.728 456.619 134.743 456.613C135.827 456.622 136.911 456.63 138.028 456.639C139.176 456.637 140.323 456.634 141.505 456.631C144.701 456.627 147.896 456.637 151.092 456.652C154.587 456.665 158.082 456.66 161.577 456.658C168.365 456.657 175.154 456.671 181.942 456.69C189.792 456.711 197.642 456.714 205.492 456.716C226.224 456.732 246.955 456.774 267.687 456.812C337.142 456.905 337.142 456.905 408 457C408 344.8 408 232.6 408 117C392.49 117 376.98 117 361 117C351.963 112.481 351.963 112.481 349.562 109C349.089 108.34 348.616 107.68 348.129 107C346.032 103.286 345.848 99.6965 345.715 95.4846C345.679 94.3799 345.643 93.2752 345.606 92.137C345.469 87.1072 345.337 82.0775 345.223 77.0471C345.157 74.3922 345.082 71.7375 344.995 69.0833C344.87 65.2549 344.779 61.4271 344.695 57.5977C344.628 55.8178 344.628 55.8178 344.56 54.002C344.433 45.79 344.433 45.79 347.32 41.7673C350 40 350 40 353.187 39.125Z" fill="black"/>
<path d="M97 -0.5625C97.99 -0.595371 97.99 -0.595371 99 -0.628906C102.207 0.37959 103.211 2.20361 105 5C105.343 7.8545 105.47 10.3041 105.391 13.1445C105.385 13.9143 105.379 14.6841 105.373 15.4772C105.351 17.923 105.301 20.3672 105.25 22.8125C105.23 24.4759 105.212 26.1393 105.195 27.8027C105.151 31.8691 105.082 35.9343 105 40C106.11 39.9963 107.219 39.9926 108.362 39.9888C135.335 39.9001 162.308 39.8343 189.281 39.7928C202.325 39.7721 215.369 39.744 228.413 39.6982C239.78 39.6584 251.146 39.6326 262.513 39.6236C268.533 39.6184 274.554 39.6061 280.575 39.5771C286.238 39.55 291.901 39.5415 297.565 39.5476C299.647 39.5465 301.728 39.5385 303.81 39.5232C306.647 39.5034 309.482 39.508 312.319 39.519C313.148 39.5073 313.976 39.4957 314.83 39.4837C318.435 39.5214 320.563 39.6785 323.507 41.8465C325 44 325 44 325.562 46.9375C324.791 51.1387 323.356 52.3882 320 55C317.061 55.7108 314.211 55.6544 311.199 55.6013C310.312 55.6055 309.426 55.6098 308.513 55.6142C305.543 55.6225 302.574 55.595 299.604 55.5676C297.475 55.5662 295.347 55.567 293.218 55.5698C287.437 55.5713 281.657 55.5419 275.876 55.507C269.836 55.4757 263.795 55.4728 257.755 55.4668C246.316 55.4513 234.876 55.4103 223.437 55.3601C210.414 55.3042 197.392 55.2767 184.369 55.2516C157.579 55.1993 130.79 55.1114 104 55C104.002 55.8491 104.004 56.6982 104.006 57.573C104.132 108.088 104.258 158.602 104.382 209.117C104.397 215.205 104.412 221.293 104.427 227.382C104.43 228.593 104.433 229.805 104.436 231.054C104.485 250.583 104.533 270.112 104.582 289.641C104.632 309.734 104.682 329.827 104.731 349.92C104.761 362.282 104.792 374.644 104.823 387.006C104.844 395.525 104.865 404.044 104.886 412.563C104.898 417.451 104.91 422.339 104.923 427.228C104.925 428.136 104.927 429.044 104.93 429.979C104.934 431.782 104.939 433.585 104.944 435.388C104.955 439.732 104.963 444.075 104.965 448.418C104.97 456.602 105.001 464.783 105.108 472.966C105.158 476.959 105.193 480.953 105.226 484.947C105.246 486.857 105.273 488.767 105.307 490.677C105.354 493.317 105.377 495.957 105.394 498.597C105.414 499.377 105.435 500.157 105.456 500.96C105.456 504.704 105.13 506.795 103.1 509.986C101 512 101 512 99 512.629C98.34 512.607 97.68 512.585 97 512.562C96.34 512.564 95.68 512.565 95 512.566C91.9947 511.715 90.9011 510.483 89 508C88.6509 505.11 88.5318 502.614 88.6094 499.734C88.615 498.941 88.6207 498.148 88.6265 497.33C88.6489 494.803 88.6991 492.277 88.75 489.75C88.7701 488.034 88.7883 486.318 88.8047 484.602C88.8487 480.4 88.9177 476.2 89 472C87.9304 472.021 86.8608 472.042 85.7588 472.063C81.7856 472.136 77.8125 472.182 73.8389 472.22C72.12 472.24 70.4012 472.267 68.6826 472.302C66.2101 472.35 63.7385 472.373 61.2656 472.391C60.1154 472.422 60.1154 472.422 58.942 472.453C55.3633 472.455 53.4024 472.308 50.5188 470.101C48.8855 467.842 48.4321 466.758 48.4375 464C48.4156 463.34 48.3937 462.68 48.3711 462C49 460 49 460 54 456C65.55 456 77.1 456 89 456C89 324 89 192 89 56C77.45 56 65.9 56 54 56C49 52 49 52 48.3711 50C48.393 49.34 48.4149 48.68 48.4375 48C48.4362 47.34 48.4349 46.68 48.4336 46C49.2847 42.9947 50.5165 41.9011 53 40C55.8897 39.6509 58.3859 39.5318 61.2656 39.6094C62.059 39.615 62.8524 39.6207 63.6699 39.6265C66.1972 39.6489 68.7231 39.6991 71.25 39.75C72.9661 39.7701 74.6823 39.7883 76.3984 39.8047C80.5995 39.8487 84.7995 39.9177 89 40C88.9791 38.9304 88.9581 37.8608 88.9365 36.7588C88.8641 32.7856 88.8182 28.8125 88.7803 24.8389C88.7602 23.12 88.7329 21.4012 88.6982 19.6826C88.6496 17.2101 88.627 14.7385 88.6094 12.2656C88.5887 11.4988 88.5681 10.732 88.5468 9.94196C88.5453 6.36329 88.692 4.4024 90.8994 1.5188C93.1584 -0.114512 94.2425 -0.567886 97 -0.5625Z" fill="black"/>
<path d="M365 117C379.19 117 393.38 117 408 117C408 229.2 408 341.4 408 457C315.93 457 223.86 457 129 457C129 456.67 129 456.34 129 456C214.8 456 300.6 456 389 456C389 344.46 389 232.92 389 118C381.08 118 373.16 118 365 118C365 117.67 365 117.34 365 117Z" fill="#F5E0C1"/>
<path d="M159.902 355.406C163.184 356.335 165.03 358.329 167 361C168.822 364.713 170.211 368.563 171.617 372.449C172.038 373.576 172.458 374.702 172.891 375.863C174.232 379.467 175.554 383.077 176.875 386.688C178.19 390.24 179.508 393.791 180.827 397.343C181.683 399.653 182.537 401.965 183.387 404.278C185.265 409.38 187.165 414.466 189.193 419.51C189.523 420.335 189.853 421.159 190.194 422.009C190.796 423.497 191.406 424.983 192.027 426.463C193.64 430.453 194.504 433.696 194 438C191.71 441.01 190.209 442.698 186.5 443.625C182.89 442.723 180.989 441.035 179 438C175 428.987 175 428.987 175 425C163.78 425 152.56 425 141 425C140.01 428.3 139.02 431.6 138 435C135.6 440.6 135.6 440.6 132 443C128.389 442.871 125.929 442.697 123 440.5C120.185 433.463 124.103 425.251 126.719 418.648C127.096 417.673 127.472 416.697 127.861 415.691C129.064 412.582 130.282 409.478 131.5 406.375C132.288 404.347 133.074 402.318 133.859 400.289C135.43 396.238 137.012 392.191 138.602 388.147C140.257 383.929 141.871 379.698 143.461 375.454C144.061 373.871 144.061 373.871 144.673 372.256C145.436 370.242 146.189 368.224 146.932 366.202C147.448 364.848 147.448 364.848 147.975 363.467C148.27 362.675 148.566 361.882 148.871 361.065C151.453 356.345 154.716 355.654 159.902 355.406Z" fill="#040303"/>
<path d="M243.918 355.539C247.103 356.244 248.82 357.622 251 360C252.741 362.913 253.247 365.023 253.227 368.401C253.227 369.262 253.227 370.123 253.227 371.009C253.216 371.929 253.206 372.849 253.195 373.797C253.192 374.746 253.19 375.694 253.187 376.672C253.176 379.698 253.15 382.724 253.125 385.75C253.115 387.803 253.106 389.857 253.098 391.91C253.076 396.94 253.041 401.97 253 407C253.951 407.142 254.903 407.284 255.883 407.43C259 408 259 408 260.875 409.125C262.723 412.205 262.491 414.504 262 418C259.75 420.437 259.75 420.437 257 422C255.68 422 254.36 422 253 422C253.046 423.097 253.093 424.194 253.141 425.324C253.178 426.779 253.215 428.233 253.25 429.687C253.284 430.409 253.317 431.13 253.352 431.873C253.422 435.723 253.243 437.597 251.203 440.98C249 443 249 443 245.5 443.625C242 443 242 443 239.797 440.98C237.425 437.046 237.541 434.175 237.75 429.687C237.768 428.947 237.786 428.206 237.805 427.443C237.852 425.628 237.923 423.814 238 422C237.087 422.021 236.174 422.042 235.234 422.063C231.832 422.132 228.432 422.182 225.03 422.22C223.561 422.24 222.091 422.267 220.622 422.302C218.504 422.35 216.388 422.373 214.27 422.391C212.997 422.412 211.724 422.432 210.413 422.454C206.318 421.909 204.672 421.152 202 418C201.192 412.633 202.454 409.319 205.078 404.676C205.562 403.806 205.562 403.806 206.056 402.918C207.106 401.04 208.177 399.176 209.25 397.312C209.984 396.017 210.717 394.72 211.449 393.424C213.274 390.202 215.119 386.992 216.971 383.786C217.928 382.125 218.876 380.458 219.823 378.791C221.387 376.038 222.969 373.298 224.563 370.562C225.013 369.772 225.464 368.982 225.929 368.167C230.247 360.914 234.941 354.897 243.918 355.539Z" fill="#030202"/>
<path d="M415 -0.562458C415.66 -0.563747 416.32 -0.565036 417 -0.566364C420.005 0.284732 421.099 1.51658 423 4.00004C423.349 6.88969 423.468 9.38597 423.391 12.2657C423.385 13.0591 423.379 13.8525 423.374 14.6699C423.351 17.1972 423.301 19.7231 423.25 22.25C423.23 23.9662 423.212 25.6823 423.195 27.3985C423.151 31.5995 423.082 35.7996 423 40C424.07 39.9791 425.139 39.9581 426.241 39.9366C430.214 39.8641 434.188 39.8182 438.161 39.7803C439.88 39.7602 441.599 39.7329 443.317 39.6983C445.79 39.6497 448.262 39.6271 450.734 39.6094C451.885 39.5784 451.885 39.5784 453.058 39.5469C456.637 39.5454 458.598 39.692 461.481 41.8995C463.115 44.1584 463.568 45.2425 463.563 48C463.584 48.66 463.606 49.32 463.629 50C462.598 53.2799 460.91 54.2083 458 56C454.613 56.5815 451.273 56.537 447.844 56.4961C446.374 56.4983 446.374 56.4983 444.874 56.5005C442.807 56.4989 440.739 56.4874 438.671 56.4666C435.511 56.4376 432.352 56.446 429.191 56.459C427.18 56.4528 425.168 56.4444 423.156 56.4336C421.742 56.438 421.742 56.438 420.299 56.4425C415.418 56.3725 411.923 56.2519 408 53C406.83 50.6609 406.855 49.237 406.823 46.6297C406.81 45.725 406.797 44.8204 406.784 43.8883C406.777 42.9081 406.769 41.9279 406.762 40.918C406.754 39.9117 406.746 38.9054 406.737 37.8685C406.723 35.7359 406.713 33.6032 406.705 31.4705C406.688 28.211 406.644 24.9526 406.6 21.6934C406.59 19.6224 406.581 17.5515 406.574 15.4805C406.557 14.5064 406.539 13.5323 406.521 12.5287C406.535 8.15262 406.581 5.68696 408.902 1.88432C411.165 -0.148015 412.007 -0.661849 415 -0.562458Z" fill="black"/>
<path d="M361 67C365.823 71.0234 370.376 75.228 374.809 79.6758C375.42 80.2864 376.032 80.897 376.662 81.5262C377.94 82.8031 379.216 84.0812 380.491 85.3606C382.453 87.3282 384.421 89.2903 386.389 91.252C387.633 92.4971 388.877 93.7425 390.121 94.9883C390.712 95.5768 391.302 96.1652 391.911 96.7716C396 100.885 396 100.885 396 102C391.498 102.074 386.996 102.129 382.493 102.165C380.961 102.18 379.43 102.2 377.898 102.226C375.696 102.263 373.495 102.28 371.293 102.293C370.609 102.308 369.924 102.324 369.219 102.34C366.523 102.341 364.451 102.247 362.063 100.938C360.43 97.9598 360.632 95.0112 360.707 91.707C360.711 91.001 360.716 90.295 360.72 89.5676C360.737 87.3155 360.774 85.0643 360.813 82.8125C360.828 81.2845 360.841 79.7565 360.854 78.2285C360.887 74.4853 360.938 70.7428 361 67Z" fill="#DC5790"/>
<path d="M157 382C157.66 382 158.32 382 159 382C160.426 385.826 161.85 389.653 163.272 393.481C163.757 394.784 164.242 396.086 164.728 397.389C165.424 399.257 166.118 401.127 166.812 402.996C167.231 404.122 167.65 405.248 168.082 406.408C169 409 169 409 169 410C161.74 410 154.48 410 147 410C150.375 399.875 150.375 399.875 151.824 395.965C152.13 395.137 152.437 394.308 152.752 393.455C153.215 392.209 153.215 392.209 153.688 390.938C154.008 390.072 154.328 389.206 154.658 388.314C155.438 386.209 156.218 384.104 157 382Z" fill="#F2EADA"/>
<path d="M237 380C237.33 380 237.66 380 238 380C238 388.91 238 397.82 238 407C232.72 407 227.44 407 222 407C224.329 401.177 227.365 396.067 230.562 390.688C231.165 389.661 231.768 388.634 232.389 387.576C232.963 386.606 233.537 385.636 234.129 384.637C234.656 383.747 235.182 382.857 235.725 381.94C236.146 381.3 236.566 380.66 237 380Z" fill="#F3EBDB"/>
<path d="M346 47C346 64.16 346 81.32 346 99C345.67 99 345.34 99 345 99C345.053 98.0538 345.107 97.1077 345.162 96.1328C346.848 76.7101 346.848 76.7101 340.371 59.2148C337.06 55.7279 333.436 52.7341 329.453 50.0427C328.973 49.6986 328.494 49.3545 328 49C328 48.67 328 48.34 328 48C330.812 47.833 333.625 47.6664 336.438 47.5C337.24 47.4523 338.042 47.4046 338.869 47.3555C344.887 47 344.887 47 346 47Z" fill="#EBD9BC"/>
<path d="M361 82C365.922 86.0062 370.446 90.3362 374.937 94.8125C375.529 95.3999 376.121 95.9873 376.731 96.5925C381 100.876 381 100.876 381 102C378.229 102.081 375.459 102.14 372.687 102.188C371.902 102.213 371.116 102.238 370.307 102.264C369.549 102.273 368.792 102.283 368.012 102.293C367.315 102.309 366.619 102.324 365.901 102.341C363.364 101.886 362.51 101.064 361 99C360.659 97.0989 360.659 97.0989 360.707 94.9883C360.717 94.231 360.726 93.4736 360.736 92.6934C360.761 91.9077 360.787 91.122 360.812 90.3125C360.826 89.5152 360.839 88.7179 360.853 87.8965C360.889 85.9307 360.943 83.9653 361 82Z" fill="#DE74A4"/>
</g>
<defs>
<clipPath id="clip0_12_6">
<rect width="512" height="512" fill="white"/>
</clipPath>
</defs>
</svg>
